<?xml version="1.0" encoding="UTF-8"?>
<svg id="Layer_2" data-name="Layer 2" xmlns="http://www.w3.org/2000/svg" viewBox="0 0 438.86 336.97">
  <defs>
    <style>
      .cls-1 {
        fill: #fff;
      }
    </style>
  </defs>
  <g id="Layer_4_copy_4" data-name="Layer 4 copy 4">
    <g id="Layer_4_copy_4-2" data-name="Layer 4 copy 4">
      <g>
        <path class="cls-1" d="M285.72,0l-37.02,87.33h0s-63.67,150.18-63.67,150.18l-42.17,99.46-2.62-6.18h0s-39.54-93.27-39.54-93.27L0,0h84.33l58.53,138.06,39.54,93.26,63.67-150.17,7.93-18.7,3.36-7.93c.95-3.25,1.46-6.69,1.46-10.24,0-14.54-8.49-27.11-20.78-33.02-4.78-2.3-10.15-3.59-15.82-3.59-2.4,0-4.75.23-7.02.68-10.87,2.11-20.03,9.04-25.16,18.48h0c-.04.09-.09.17-.12.25L201.4,0h84.32Z"/>
        <polygon class="cls-1" points="438.86 336.97 354.53 336.97 253.83 99.46 296 .01 438.86 336.97"/>
      </g>
    </g>
  </g>
</svg>